<?xml version="1.0" encoding="utf-8"?>
<svg version="1.2" xmlns="http://www.w3.org/2000/svg" xmlns:xlink="http://www.w3.org/1999/xlink"
	 x="0px" y="0px" width="12px" height="12px" viewBox="0 0 12 12" xml:space="preserve">
<path fill="#4289C1" d="M9,9.029H3c-0.736,0-1.334,0.598-1.334,1.334v1.666h8.668v-1.666C10.334,9.627,9.736,9.029,9,9.029"/>
<path fill="#2A6797" d="M8.666,10.695H9v1.334H8.666V10.695z M3,10.695h0.334v1.334H3V10.695z"/>
<path fill="#FFDC5D" d="M3,2.009v3.687c0,1.658,1.343,3,3,3s3-1.342,3-3V2.113L3,2.009z"/>
<path fill="#662113" d="M4.666,5.362c-0.184,0-0.332-0.148-0.332-0.333V4.696c0-0.184,0.148-0.333,0.332-0.333
	C4.851,4.363,5,4.512,5,4.696v0.333C5,5.214,4.851,5.362,4.666,5.362 M7.334,5.362C7.149,5.362,7,5.214,7,5.029V4.696
	c0-0.184,0.149-0.333,0.334-0.333c0.184,0,0.332,0.149,0.332,0.333v0.333C7.666,5.214,7.518,5.362,7.334,5.362"/>
<path fill="#C1694F" d="M6.334,6.529H5.666C5.574,6.529,5.5,6.455,5.5,6.363c0-0.093,0.074-0.168,0.166-0.168h0.668
	c0.092,0,0.166,0.075,0.166,0.168C6.5,6.455,6.426,6.529,6.334,6.529"/>
<path fill="#FFDC5D" d="M3.615,4.601c0,0.527-0.266,0.954-0.596,0.954c-0.329,0-0.596-0.427-0.596-0.954S2.69,3.647,3.02,3.647
	S3.615,4.074,3.615,4.601 M9.576,4.601c0,0.527-0.267,0.954-0.596,0.954c-0.33,0-0.596-0.427-0.596-0.954S8.65,3.647,8.98,3.647
	C9.31,3.647,9.576,4.074,9.576,4.601"/>
<path fill="#963B22" d="M3.072,1.688C2.766,2.153,2.62,2.678,2.62,3.167c0,1.301,0.448,1.662,0.521,1.301
	c0.26-1.301,1.039-1.7,1.039-1.7C5.74,4.068,5.48,3.027,5.48,3.027c1.56,1.561,0.779,0,0.779,0C6.78,3.548,8.34,3.548,8.34,3.548
	s0.26,0.399,0.52,0.92s0.521,0,0.521-1.301c0-0.447-0.153-0.925-0.439-1.36"/>
<path fill="#FFDC5D" d="M5,8.029v1.334c0,0.552,0.447,1,1,1s1-0.448,1-1V8.029H5z"/>
<path fill="#C1694F" d="M6.001,7.743c-1.013,0-1.323-0.26-1.374-0.313C4.53,7.339,4.526,7.185,4.618,7.089
	c0.091-0.096,0.243-0.1,0.34-0.006l0,0c0.02,0.012,0.264,0.178,1.043,0.178c0.807,0,1.041-0.178,1.045-0.18
	c0.093-0.094,0.24-0.09,0.335,0.004C7.475,7.181,7.47,7.337,7.374,7.431C7.322,7.483,7.012,7.743,6.001,7.743"/>
<path fill="#66757F" d="M9.906,1.824C9.76,1.149,8.262,0.538,6.717,0.466c0.115-0.074,0.225-0.134,0.309-0.16
	C7.264,0.231,6.951,0,6.719,0c0,0-0.363,0.168-0.643,0.47c-2.252,0.116-4.072,1.34-4.018,1.66C2.117,2.464,2.47,2.126,2.483,2.412
	c0.013,0.285,0.313,0.313,0.313,0.313s1.12-0.134,2.956,0.017c1.836,0.15,3.037,0.169,3.51,0.296
	c0.289,0.078,0.334-0.369,0.334-0.369S10.076,2.612,9.906,1.824"/>
<path fill="#D99E82" d="M8.828,12.008c-0.092-1.289-1.362-2.65-3.212-3.293C3.382,7.939,1.155,8.51,0.642,9.99
	c-0.224,0.645-0.084,1.355,0.33,2.018H8.828z"/>
<ellipse transform="matrix(-0.9451 -0.3269 0.3269 -0.9451 10.0032 23.0854)" fill="#5C913B" cx="6.941" cy="10.702" rx="0.714" ry="0.551"/>
<ellipse transform="matrix(-0.9446 -0.3283 0.3283 -0.9446 0.4859 22.5664)" fill="#226699" cx="2.148" cy="11.242" rx="0.714" ry="0.552"/>
<ellipse transform="matrix(-0.9446 -0.3283 0.3283 -0.9446 2.2292 19.5404)" fill="#DD2E44" cx="2.764" cy="9.582" rx="0.714" ry="0.552"/>
<ellipse transform="matrix(-0.9545 -0.2983 0.2983 -0.9545 7.1425 20.1995)" fill="#FFCC4D" cx="5.113" cy="9.555" rx="0.714" ry="0.551"/>
<path fill="#FFDC5D" d="M0.007,10.008c0.025-0.402,0.464-1.061,1-1c0.555,0.064,0.043,1.043,0,1.334
	c-0.043,0.289,0.047,0.979-0.334,1C0.157,11.369-0.04,10.736,0.007,10.008"/>
</svg>
