<svg version="1.2" xmlns="http://www.w3.org/2000/svg" xmlns:xlink="http://www.w3.org/1999/xlink"
	 x="0px" y="0px" width="12px" height="12px" viewBox="0 0 12 12" xml:space="preserve">
<path fill="#F2760F" d="M10.666,12v-0.666c0-1.105-0.895-2-2-2H3.334c-1.105,0-2,0.895-2,2V12H10.666z"/>
<path fill="#292F33" d="M4.334,9.029h3.332v1.334H4.334V9.029z"/>
<path fill="#292F33" d="M6.334,11.646L6,12l-0.334-0.334v-1h0.668V11.646z"/>
<path fill="#FFF75F" d="M3,9.334h1V12H3V9.334z M8,9.334h1V12H8V9.334z"/>
<path fill="#292F33" d="M4.666,9.196h2.668c0,0-0.34,2.138-1.334,2.138S4.666,9.196,4.666,9.196"/>
<path fill="#FFDC5D" d="M3,2.009v3.687c0,1.658,1.343,3,3,3s3-1.342,3-3V2.113L3,2.009z"/>
<path fill="#662113" d="M4.666,5.362c-0.184,0-0.332-0.148-0.332-0.333V4.696c0-0.184,0.148-0.333,0.332-0.333
	C4.851,4.363,5,4.512,5,4.696v0.333C5,5.214,4.851,5.362,4.666,5.362 M7.334,5.362C7.149,5.362,7,5.214,7,5.029V4.696
	c0-0.184,0.149-0.333,0.334-0.333c0.184,0,0.332,0.149,0.332,0.333v0.333C7.666,5.214,7.518,5.362,7.334,5.362"/>
<path fill="#C1694F" d="M6.334,6.529H5.666C5.574,6.529,5.5,6.455,5.5,6.363c0-0.093,0.074-0.168,0.166-0.168h0.668
	c0.092,0,0.166,0.075,0.166,0.168C6.5,6.455,6.426,6.529,6.334,6.529"/>
<path fill="#FFDC5D" d="M3.615,4.601c0,0.527-0.266,0.954-0.596,0.954c-0.329,0-0.596-0.427-0.596-0.954S2.69,3.647,3.02,3.647
	S3.615,4.074,3.615,4.601 M9.576,4.601c0,0.527-0.267,0.954-0.596,0.954c-0.33,0-0.596-0.427-0.596-0.954S8.65,3.647,8.98,3.647
	C9.31,3.647,9.576,4.074,9.576,4.601"/>
<path fill="#963B22" d="M6,0.304c-2.34,0-3.38,1.561-3.38,2.863c0,1.301,0.448,1.662,0.521,1.301c0.26-1.301,1.039-1.7,1.039-1.7
	C5.74,4.068,5.48,3.027,5.48,3.027c1.56,1.561,0.779,0,0.779,0C6.78,3.548,8.34,3.548,8.34,3.548s0.26,0.399,0.52,0.92
	s0.521,0,0.521-1.301C9.38,1.865,8.08,0.304,6,0.304"/>
<path fill="#FFDC5D" d="M5,8.029v1.334c0,0.552,0.447,1,1,1s1-0.448,1-1V8.029H5z"/>
<path fill="#C1694F" d="M6.001,7.743c-1.013,0-1.323-0.26-1.374-0.313C4.53,7.339,4.526,7.185,4.618,7.089
	c0.091-0.096,0.243-0.1,0.34-0.006l0,0c0.02,0.012,0.264,0.178,1.043,0.178c0.807,0,1.041-0.178,1.045-0.18
	c0.093-0.094,0.24-0.09,0.335,0.004C7.475,7.181,7.47,7.337,7.374,7.431C7.322,7.483,7.012,7.743,6.001,7.743"/>
<path fill="#FFF75F" d="M10,3.667C9,3,9.664,2.277,9,1.333C8.375,0.446,7.334,0,6,0C4.333,0,3.625,0.446,3,1.333
	C2.335,2.277,3,3,2,3.667C1.379,4.08,4,4.438,6,4.438C8,4.438,10.619,4.08,10,3.667"/>
<path fill="#FFAC33" d="M5.333,3.833V0.029C5.216,0.04,5.105,0.054,5,0.071v3.427C4.302,3.481,3.292,3.366,2.449,3.213
	C2.383,3.323,2.301,3.421,2.205,3.506c0.971,0.188,2.199,0.328,2.961,0.328H5.333z M9.617,3.316C8.668,3.417,7.672,3.488,7,3.499
	V0.097C6.893,0.075,6.779,0.06,6.666,0.045v3.788h0.168c0.672,0,1.932-0.087,3.096-0.219C9.811,3.531,9.707,3.43,9.617,3.316"/>
<path fill="#55ACEE" d="M3.666,9.334c0,0.332,0.334,1,1,1.666C5.193,11.527,6,12,6,12c0-1.021-0.334-1.334-0.666-1.666
	C5,10,4.334,9.666,4.334,9C4.334,8.666,3.666,9.334,3.666,9.334 M8.334,9.334c0,0.332-0.334,1-1,1.666C6.807,11.527,6,12,6,12
	c0-1.021,0.334-1.334,0.666-1.666C7,10,7.666,9.666,7.666,9C7.666,8.666,8.334,9.334,8.334,9.334"/>
</svg>
